# xmcd CD database file
#
# Track frame offsets:
#	150
#	22475
#	47972
#	74965
#	97155
#	124145
#	144577
#	168270
#	203327
#	221582
#	241670
#	260560
#
# Disc length: 3665 seconds
#
# Revision: 0
# Processed by: cddbd v1.5.1PL0 Copyright (c) Steve Scherf et al.
# Submitted via: CDex 1.51
#
DISCID=bd0e4f0c
DTITLE=Andre Jaume - Merapi
DYEAR=1996
DGENRE=Jazz
TTITLE0=Elephant
TTITLE1=Jackie-In
TTITLE2=Lune d'Argent - Rembulan Perak
TTITLE3=Dewa Reggae
TTITLE4=Lat Terre Bouge - Bumi Bergoyang
TTITLE5=Ruzere Bleue - Pematang Biru
TTITLE6=Mirage - Fata Morgana
TTITLE7=Pierre Du Matin - Batu Fajar
TTITLE8=Lave - Lahar
TTITLE9=Grenat - Mirah Delimah
TTITLE10=Argile - Tanah Liat
TTITLE11=Racine - Akar
EXTD=YEAR: 1996
EXTT0=
EXTT1=
EXTT2=
EXTT3=
EXTT4=
EXTT5=
EXTT6=
EXTT7=
EXTT8=
EXTT9=
EXTT10=
EXTT11=
PLAYORDER=
